name p02_m_01_labelled_grf.mot
datacolumns 46
datarows 10
range 0.121000 0.125500
endheader
time	1_ground_force_vx	1_ground_force_vy	1_ground_force_vz	1_ground_force_px	1_ground_force_py	1_ground_force_pz	1_ground_torque_x	1_ground_torque_y	1_ground_torque_z	2_ground_force_vx	2_ground_force_vy	2_ground_force_vz	2_ground_force_px	2_ground_force_py	2_ground_force_pz	2_ground_torque_x	2_ground_torque_y	2_ground_torque_z	3_ground_force_vx	3_ground_force_vy	3_ground_force_vz	3_ground_force_px	3_ground_force_py	3_ground_force_pz	3_ground_torque_x	3_ground_torque_y	3_ground_torque_z	4_ground_force_vx	4_ground_force_vy	4_ground_force_vz	4_ground_force_px	4_ground_force_py	4_ground_force_pz	4_ground_torque_x	4_ground_torque_y	4_ground_torque_z	5_ground_force_vx	5_ground_force_vy	5_ground_force_vz	5_ground_force_px	5_ground_force_py	5_ground_force_pz	5_ground_torque_x	5_ground_torque_y	5_ground_torque_z
            0.121000	            0.034795	            0.057227	           -0.021515	            1.356692	           -0.011209	            0.306747	           -0.356672	            0.042189	            0.411976	           -0.118419	            3.435317	            0.131121	            0.451630	           -0.003066	            0.303270	            0.527997	           -0.095202	            0.074186	            0.071876	            0.749404	           -0.077195	           -0.457621	            0.004852	            0.303465	            0.233269	           -0.049820	            0.024354	          587.270440	         1499.560171	          -22.933919	           -1.529881	            0.014565	            0.396369	            1.854735	            4.735956	           -0.072431	           -0.316502	           -1.767999	           -0.218066	           -2.299638	            0.019384	            0.322027	            0.079289	           -0.054191	            0.135573
            0.121500	           -0.097457	           -1.041747	           -0.061021	            1.356692	           -0.011209	            0.306747	            0.076012	           -0.057934	            0.015527	            0.106104	            1.399090	            0.081260	            0.451630	           -0.003066	            0.303270	            0.306878	            0.041653	           -0.623730	           -0.209929	            0.438590	           -0.076883	           -0.457621	            0.004852	            0.303465	            0.035728	           -0.061246	           -0.321375	          596.537497	         1464.619240	          -17.098410	           -1.530116	            0.014567	            0.396233	            1.801683	            4.423494	           -0.051641	           -0.392087	           -0.359171	           -0.177113	           -2.299638	            0.019384	            0.322027	            0.042229	           -0.079341	           -0.032154
            0.122000	            0.126068	            1.171052	            0.138972	            1.356692	           -0.011209	            0.306747	            0.130754	           -0.013624	           -0.191364	           -0.135869	            0.930783	           -0.123761	            0.451630	           -0.003066	            0.303270	            0.352123	            0.099901	           -0.474289	           -0.130029	            0.438104	            0.122258	           -0.457621	            0.004852	            0.303465	            0.349311	           -0.072893	           -0.644875	          606.496289	         1426.358727	          -11.694758	           -1.530362	            0.014569	            0.396018	            1.835594	            4.316953	           -0.035395	           -0.036654	           -1.145392	            0.340590	           -2.299638	            0.019384	            0.322027	           -0.025359	           -0.000528	           -0.173908
            0.122500	            0.009734	            1.489536	            0.178976	            1.356692	           -0.011209	            0.306747	            0.195477	            0.041714	           -0.421841	           -0.267676	           -0.479932	            0.030988	            0.451630	           -0.003066	            0.303270	            0.100338	           -0.058141	            0.668211	            0.404679	            1.992509	            0.322492	           -0.457621	            0.004852	            0.303465	           -0.120418	           -0.135758	            0.265204	          614.282053	         1386.378708	           -6.370942	           -1.530337	            0.014569	            0.396308	            1.718064	            3.877513	           -0.017819	            0.598604	           -0.207799	            0.817761	           -2.299638	            0.019384	            0.322027	            0.009769	            0.021534	           -0.241685
            0.123000	           -0.179390	            2.595184	            0.098893	            1.356692	           -0.011209	            0.306747	            0.034821	           -0.009965	           -0.047587	           -0.198117	           -1.581350	            0.307559	            0.451630	           -0.003066	            0.303270	           -0.207132	           -0.094065	           -0.260365	            0.073920	            0.903952	            0.082402	           -0.457621	            0.004852	            0.303465	            0.189870	            0.023358	           -0.358177	          619.120077	         1347.691238	           -0.588296	           -1.531277	            0.014578	            0.396373	            1.911894	            4.161782	           -0.001817	            0.911423	           -1.151743	            0.656721	           -2.299638	            0.019384	            0.322027	            0.216077	            0.033522	           -0.441925
            0.123500	           -0.066705	            1.800220	            0.099160	            1.356692	           -0.011209	            0.306747	           -0.197674	            0.023412	            0.015630	           -0.103221	            0.303110	            0.235939	            0.451630	           -0.003066	            0.303270	            0.322196	            0.006402	            0.185907	            0.250050	            2.461229	           -0.114947	           -0.457621	            0.004852	            0.303465	            0.135632	           -0.123509	           -0.674575	          624.673248	         1309.154367	            6.910150	           -1.531004	            0.014575	            0.396390	            1.897813	            3.977327	            0.020994	            1.698397	           -1.306039	            0.254578	           -2.299638	            0.019384	            0.322027	            0.211680	            0.111659	           -0.006573
            0.124000	           -0.108055	            1.648570	           -0.101387	            1.356692	           -0.011209	            0.306747	            0.180450	            0.030787	           -0.373290	            0.004514	           -1.580030	           -0.092763	            0.451630	           -0.003066	            0.303270	            0.209282	           -0.018288	            0.412980	            0.333240	            2.774507	           -0.035130	           -0.457621	            0.004852	            0.303465	            0.068579	           -0.012384	            0.205836	          631.485412	         1268.239843	           14.140223	           -1.531082	            0.014576	            0.396514	            1.695430	            3.405006	            0.037964	            2.890126	            1.357258	            0.811664	           -2.299638	            0.019384	            0.322027	            0.012242	            0.396100	            0.239333
            0.124500	           -0.079541	            0.696049	            0.098510	            1.356692	           -0.011209	            0.306747	           -0.032295	            0.021749	           -0.039562	            0.012780	           -0.170537	            0.274340	            0.451630	           -0.003066	            0.303270	            0.027093	           -0.017051	           -0.301012	            0.252368	            2.619475	            0.164081	           -0.457621	            0.004852	            0.303465	            0.153261	           -0.010566	            0.145078	          635.188674	         1227.984252	           20.521305	           -1.531606	            0.014580	            0.396325	            1.820022	            3.518575	            0.058800	            3.990926	           -0.845912	            1.086830	           -2.299638	            0.019384	            0.322027	           -0.205936	            0.646318	           -0.457659
            0.125000	           -0.062611	            2.121519	            0.139628	            1.356692	           -0.011209	            0.306747	            0.131907	            0.028247	           -0.316558	           -0.062715	            0.301732	            0.157080	            0.451630	           -0.003066	            0.303270	            0.267354	           -0.053851	           -0.579868	            0.366763	            2.149877	            0.362429	           -0.457621	            0.004852	            0.303465	            0.304082	            0.038169	           -0.120381	          635.235396	         1185.866337	           27.890858	           -1.531614	            0.014581	            0.396519	            1.823353	            3.403861	            0.080057	            4.621351	           -1.627740	            1.323867	           -2.299638	            0.019384	            0.322027	           -0.054452	            0.729758	           -0.034018
            0.125500	           -0.033372	            1.171920	            0.099187	            1.356692	           -0.011209	            0.306747	            0.067321	            0.012200	           -0.313125	            0.101382	            0.927398	            0.239804	            0.451630	           -0.003066	            0.303270	            0.390635	           -0.006531	           -0.129870	            0.298571	            3.241795	           -0.114020	           -0.457621	            0.004852	            0.303465	            0.039219	           -0.070220	           -0.179700	          634.096920	         1149.912828	           35.326812	           -1.531717	            0.014582	            0.396542	            1.940089	            3.518284	            0.108086	            5.488918	           -1.319074	            1.081480	           -2.299638	            0.019384	            0.322027	            0.024794	            0.857927	           -0.195733
